<svg id="icon_2" data-name="icon 2" xmlns="http://www.w3.org/2000/svg"  viewBox="0 0 68.309 68.309">
  <path id="Path_1380" data-name="Path 1380" d="M66.308,56.3H60.171v-6a2,2,0,0,0-2-2H36.156V42.989L47.577,31.567a2,2,0,0,0,0-2.83L36.156,17.315V12.007H46.162a2,2,0,0,0,2-2V2a2,2,0,0,0-2-2H22.147a2,2,0,0,0-2,2v8a2,2,0,0,0,2,2H32.153v5.308L20.732,28.737a2,2,0,0,0,0,2.83L32.153,42.989V48.3H10.006a2,2,0,0,0-2,2v6H2a2,2,0,0,0-2,2v8a2,2,0,0,0,2,2h16.01a2,2,0,0,0,2-2v-8a2,2,0,0,0-2-2h-6v-4H32.153v4.346a6,6,0,1,0,4,0V52.3H56.168v4h-6a2,2,0,0,0-2,2v8a2,2,0,0,0,2,2H66.308a2,2,0,0,0,2-2v-8A2,2,0,0,0,66.308,56.3Zm-50.3,4v4H4v-4ZM24.148,8V4H44.161V8Zm10.006,56.3a2,2,0,1,1,2-2A2,2,0,0,1,34.155,64.307Zm0-24.978-9.177-9.177,9.177-9.177,9.177,9.177ZM64.307,64.307H52.166v-4H64.307Zm0,0" fill="#fff"/>
</svg>
